<mxfile host="app.diagrams.net" modified="2023-03-05T13:24:52.605Z" agent="5.0 (Windows NT 10.0; Win64; x64) AppleWebKit/537.36 (KHTML, like Gecko) Chrome/110.0.0.0 Safari/537.36" etag="N7a0kibQSK43jta67XLr" version="21.0.2" type="github">
  <diagram name="Page-1" id="zI6aNaBO3cUqT81L_fov">
    <mxGraphModel dx="1290" dy="573" grid="1" gridSize="10" guides="1" tooltips="1" connect="1" arrows="1" fold="1" page="1" pageScale="1" pageWidth="850" pageHeight="1100" math="0" shadow="0">
      <root>
        <mxCell id="0" />
        <mxCell id="1" parent="0" />
        <mxCell id="0OcC6BJLfz4UXtSA8odm-2" style="edgeStyle=orthogonalEdgeStyle;rounded=0;orthogonalLoop=1;jettySize=auto;html=1;exitX=0.5;exitY=1;exitDx=0;exitDy=0;exitPerimeter=0;entryX=0.5;entryY=0;entryDx=0;entryDy=0;" edge="1" parent="1" target="0OcC6BJLfz4UXtSA8odm-5">
          <mxGeometry relative="1" as="geometry">
            <mxPoint x="210" y="150" as="sourcePoint" />
          </mxGeometry>
        </mxCell>
        <mxCell id="0OcC6BJLfz4UXtSA8odm-3" style="edgeStyle=orthogonalEdgeStyle;rounded=0;orthogonalLoop=1;jettySize=auto;html=1;exitX=1;exitY=0.5;exitDx=0;exitDy=0;" edge="1" parent="1" source="0OcC6BJLfz4UXtSA8odm-5" target="0OcC6BJLfz4UXtSA8odm-7">
          <mxGeometry relative="1" as="geometry" />
        </mxCell>
        <mxCell id="0OcC6BJLfz4UXtSA8odm-4" value="" style="edgeStyle=orthogonalEdgeStyle;rounded=0;orthogonalLoop=1;jettySize=auto;html=1;" edge="1" parent="1" source="0OcC6BJLfz4UXtSA8odm-5" target="0OcC6BJLfz4UXtSA8odm-7">
          <mxGeometry relative="1" as="geometry" />
        </mxCell>
        <mxCell id="0OcC6BJLfz4UXtSA8odm-5" value="&lt;p class=&quot;MsoNormal&quot;&gt;var&lt;/p&gt;&lt;br/&gt;&lt;br/&gt;&lt;p class=&quot;MsoNormal&quot;&gt;calcular:real&lt;/p&gt;" style="rounded=1;whiteSpace=wrap;html=1;absoluteArcSize=1;arcSize=14;strokeWidth=2;" vertex="1" parent="1">
          <mxGeometry x="160" y="190" width="100" height="100" as="geometry" />
        </mxCell>
        <mxCell id="0OcC6BJLfz4UXtSA8odm-7" value="&lt;p class=&quot;MsoListParagraphCxSpFirst&quot;&gt;&amp;nbsp;&lt;/p&gt;&lt;p class=&quot;MsoListParagraphCxSpMiddle&quot;&gt;&amp;nbsp;&amp;nbsp;&lt;br&gt;Se(num % 2 = 0) ENTAO&lt;span style=&quot;background-color: initial;&quot;&gt;&amp;nbsp; &amp;nbsp;&lt;/span&gt;&lt;/p&gt;&lt;p class=&quot;MsoListParagraphCxSpMiddle&quot;&gt;Escreva(&quot;O número &quot;, num, &quot; é par.&quot;)&lt;span style=&quot;background-color: initial;&quot;&gt;&amp;nbsp;&lt;/span&gt;&lt;/p&gt;&lt;p class=&quot;MsoListParagraphCxSpMiddle&quot;&gt;SENAO&lt;span style=&quot;background-color: initial;&quot;&gt;&amp;nbsp; &amp;nbsp;&amp;nbsp;&lt;/span&gt;&lt;/p&gt;&lt;p class=&quot;MsoListParagraphCxSpMiddle&quot;&gt;Escreva(&quot;O número &quot;, num, &quot; é ímpar.&quot;)&lt;/p&gt;&lt;p class=&quot;MsoListParagraphCxSpMiddle&quot;&gt;FimSe&lt;/p&gt;&lt;p class=&quot;MsoNormal&quot;&gt;&lt;br&gt;&lt;/p&gt;" style="rounded=1;whiteSpace=wrap;html=1;absoluteArcSize=1;arcSize=14;strokeWidth=2;" vertex="1" parent="1">
          <mxGeometry x="320" y="190" width="320" height="150" as="geometry" />
        </mxCell>
        <mxCell id="0OcC6BJLfz4UXtSA8odm-8" value="FimAlgoritmo" style="strokeWidth=2;html=1;shape=mxgraph.flowchart.start_1;whiteSpace=wrap;" vertex="1" parent="1">
          <mxGeometry x="670" y="210" width="100" height="60" as="geometry" />
        </mxCell>
        <mxCell id="0OcC6BJLfz4UXtSA8odm-9" value="Início" style="strokeWidth=2;html=1;shape=mxgraph.flowchart.start_2;whiteSpace=wrap;" vertex="1" parent="1">
          <mxGeometry x="160" y="50" width="100" height="100" as="geometry" />
        </mxCell>
        <mxCell id="0OcC6BJLfz4UXtSA8odm-10" value="&lt;p class=&quot;MsoListParagraphCxSpFirst&quot;&gt;var&lt;/p&gt;&lt;span style=&quot;background-color: initial;&quot;&gt;num: inteiro&lt;/span&gt;" style="rounded=1;whiteSpace=wrap;html=1;absoluteArcSize=1;arcSize=14;strokeWidth=2;" vertex="1" parent="1">
          <mxGeometry x="160" y="190" width="100" height="100" as="geometry" />
        </mxCell>
        <mxCell id="0OcC6BJLfz4UXtSA8odm-11" style="edgeStyle=orthogonalEdgeStyle;rounded=0;orthogonalLoop=1;jettySize=auto;html=1;exitX=1;exitY=0.5;exitDx=0;exitDy=0;entryX=0;entryY=0.5;entryDx=0;entryDy=0;entryPerimeter=0;" edge="1" parent="1" target="0OcC6BJLfz4UXtSA8odm-8">
          <mxGeometry relative="1" as="geometry">
            <mxPoint x="640" y="240" as="sourcePoint" />
          </mxGeometry>
        </mxCell>
      </root>
    </mxGraphModel>
  </diagram>
</mxfile>
